<svg id="Layer_1" data-name="Layer 1" xmlns="http://www.w3.org/2000/svg" viewBox="0 0 1822 1652.7"><defs><style>.cls-1{fill:#0072ff;}.cls-2{fill:none;stroke-linecap:round;stroke-linejoin:round;stroke-width:30px;}.cls-2,.cls-3{stroke:#fff;}.cls-3{fill:#fff;stroke-miterlimit:10;}</style></defs><title>heartArtboard 1</title><path class="cls-1" d="M1777.9,367.28c-49.5-192.74-205.16-314.79-419.32-337.94a506,506,0,0,0-54.37-3c-186.16,0-318.61,108.71-394.33,257.29C830.77,128.58,695.73,28,498.84,28q-19.54,0-39.92,1.34c-195.83,12.91-364,130-417,358.28-95.34,410.63,355.93,830.38,868,1238.7,544.6-405.58,969.48-864,868-1259.1Z"/><path class="cls-2" d="M289.58,942.75H478.26l27.39-82.17,25.87,82.17H558.9l12.18,38,30.43-523.43,45.65,738L671.5,942.75l65.43-1.52s54.78-76.08,115.64,0l94.34-1.52,32-79.13,25.87,76.08,25.87,3.05,10.65,39.56,35-509.73,44.13,725.8,22.82-255.63,74.56,3c2.71-.25,51.68-76.39,112.6-1.52l176.5-1.52"/><circle class="cls-3" cx="1506.8" cy="938.4" r="25.58"/></svg>