<svg id="Layer_1" data-name="Layer 1" xmlns="http://www.w3.org/2000/svg" viewBox="0 0 1920 1080"><defs><style>.cls-1,.cls-2{fill:#fff;}.cls-1{stroke:#f2f2f2;stroke-linecap:round;stroke-miterlimit:10;stroke-width:100px;}.cls-3{fill:#f2f2f2;}</style></defs><title>searchArtboard 1</title><line class="cls-1" x1="817.28" y1="454.33" x2="1398.51" y2="1000.28"/><path class="cls-2" d="M820.8,779.72c-147.43,0-277.49-99.75-316.29-242.57C481.64,453,492.91,365.3,536.25,290.26c43-74.54,112.65-127.71,196-149.73a324.66,324.66,0,0,1,82.91-10.81c147.43,0,277.5,99.75,316.3,242.57,28.39,104.51,3.22,215.49-67.34,296.87a319.29,319.29,0,0,1-160.42,99.75A325.12,325.12,0,0,1,820.8,779.72Z"/><path class="cls-3" d="M815.18,179.72A274.18,274.18,0,0,1,903.6,194.4,279,279,0,0,1,1093,454.19,271.13,271.13,0,0,1,891,720.56,273.3,273.3,0,0,1,732.39,715,278.34,278.34,0,0,1,552.76,524a272.58,272.58,0,0,1,26.79-208.78A269.07,269.07,0,0,1,745,188.87a275,275,0,0,1,70.14-9.15m0-100a374.09,374.09,0,0,0-95.67,12.47C519.72,145,401.86,350,456.26,550.25,502,718.46,654.68,829.72,820.8,829.72a374.11,374.11,0,0,0,95.68-12.47,371.46,371.46,0,0,0,263.25-458.07C1134,191,981.31,79.72,815.18,79.72Z"/></svg>